<svg width="55" height="55" viewBox="0 0 55 55" fill="none" xmlns="http://www.w3.org/2000/svg">
<rect width="55" height="55" rx="8" fill="#1E88E5"/>
<path d="M10 27.5C12.3365 19.0962 19.2892 13 27.5 13C35.7126 13 42.6635 19.0962 45 27.5C42.6635 35.9038 35.7126 42 27.5 42C19.2892 42 12.3365 35.9038 10 27.5Z" stroke="white" stroke-width="2" stroke-linecap="round" stroke-linejoin="round"/>
<path d="M20.6132 27.5L20.9047 27.1694L23.0703 24.7128C23.0703 24.7127 23.0703 24.7127 23.0703 24.7127C23.1617 24.609 23.2219 24.4563 23.2219 24.2859C23.2219 24.1154 23.1617 23.9627 23.0703 23.859C22.9807 23.7574 22.8737 23.7147 22.7777 23.7147C22.6816 23.7147 22.5746 23.7574 22.485 23.859L20.6132 27.5ZM20.6132 27.5L20.9047 27.8307L23.0703 30.2874L23.0703 30.2874L23.0761 30.2938C23.1218 30.3439 23.1613 30.4072 23.1895 30.4816C23.2176 30.5559 23.2331 30.6378 23.2337 30.7219C23.2344 30.806 23.2202 30.8883 23.1931 30.9634C23.166 31.0385 23.1273 31.103 23.082 31.1543C23.0369 31.2055 22.9867 31.2421 22.9364 31.2654C22.8864 31.2887 22.8355 31.2992 22.786 31.2987C22.7365 31.2983 22.6855 31.2867 22.6355 31.2623C22.5852 31.2378 22.5353 31.2 22.4906 31.1475L22.4907 31.1475L22.485 31.141L19.6516 27.9269C19.6516 27.9269 19.6516 27.9269 19.6516 27.9269C19.5602 27.8231 19.5 27.6704 19.5 27.5C19.5 27.3296 19.5602 27.1769 19.6516 27.0732C19.6516 27.0732 19.6516 27.0732 19.6516 27.0731L22.4849 23.8591L20.6132 27.5ZM29.5106 20.5226L29.5108 20.5227C29.5605 20.5415 29.6108 20.5728 29.6572 20.6184C29.7038 20.6642 29.7452 20.7232 29.7764 20.7939C29.8076 20.8646 29.8271 20.9438 29.8323 21.0267C29.8375 21.1096 29.8281 21.1923 29.8055 21.2693L26.0276 34.126L26.0276 34.1261C25.9814 34.2836 25.8874 34.3949 25.787 34.4519C25.6901 34.5069 25.5857 34.5138 25.4893 34.4774C25.3894 34.4396 25.2873 34.3502 25.2237 34.2061C25.1599 34.0614 25.1482 33.8886 25.1945 33.7308C25.1945 33.7307 25.1945 33.7307 25.1945 33.7306L28.9724 20.8741L28.9724 20.8739C28.995 20.7968 29.0298 20.729 29.0724 20.6733C29.1148 20.6177 29.1634 20.5762 29.213 20.5481C29.2623 20.5201 29.3129 20.5051 29.3619 20.5011C29.4109 20.4971 29.4611 20.504 29.5106 20.5226ZM32.515 31.141L32.5149 31.141L32.5094 31.1475C32.4647 31.2 32.4148 31.2378 32.3645 31.2623C32.3145 31.2867 32.2635 31.2983 32.214 31.2987C32.1645 31.2992 32.1136 31.2887 32.0636 31.2654C32.0133 31.2421 31.9631 31.2055 31.918 31.1543C31.8727 31.103 31.834 31.0385 31.8069 30.9634C31.7798 30.8883 31.7656 30.806 31.7663 30.7219C31.7669 30.6378 31.7824 30.5559 31.8105 30.4816C31.8387 30.4072 31.8782 30.3439 31.9239 30.2938L31.924 30.2938L31.9297 30.2874L34.0953 27.8307L34.3868 27.5L34.0953 27.1694L31.9297 24.7128C31.9297 24.7127 31.9297 24.7127 31.9297 24.7127C31.9297 24.7127 31.9297 24.7127 31.9297 24.7127C31.8383 24.609 31.7781 24.4563 31.7781 24.2859C31.7781 24.1154 31.8383 23.9627 31.9297 23.859C32.0193 23.7574 32.1263 23.7147 32.2223 23.7147C32.3184 23.7147 32.4254 23.7574 32.515 23.859C32.515 23.8591 32.515 23.8591 32.5151 23.8591L35.3484 27.0731C35.3484 27.0732 35.3484 27.0732 35.3484 27.0732C35.3484 27.0732 35.3484 27.0732 35.3484 27.0732C35.4398 27.1769 35.5 27.3296 35.5 27.5C35.5 27.6704 35.4398 27.8231 35.3484 27.9269C35.3484 27.9269 35.3484 27.9269 35.3484 27.9269L32.515 31.141Z" fill="white" stroke="white"/>
</svg>
